<?xml version="1.0" encoding="UTF-8" standalone="no"?>
<!-- Creator: CorelDRAW X8 -->

<svg
   xmlns:dc="http://purl.org/dc/elements/1.1/"
   xmlns:cc="http://creativecommons.org/ns#"
   xmlns:rdf="http://www.w3.org/1999/02/22-rdf-syntax-ns#"
   xmlns:svg="http://www.w3.org/2000/svg"
   xmlns="http://www.w3.org/2000/svg"
   xmlns:sodipodi="http://sodipodi.sourceforge.net/DTD/sodipodi-0.dtd"
   xmlns:inkscape="http://www.inkscape.org/namespaces/inkscape"
   xml:space="preserve"
   width="121.845mm"
   height="41.7481mm"
   version="1.1"
   style="shape-rendering:geometricPrecision; text-rendering:geometricPrecision; image-rendering:optimizeQuality; fill-rule:evenodd; clip-rule:evenodd"
   viewBox="0 0 13083 4483"
   id="svg35"
   sodipodi:docname="logo-tadam.svg"
   inkscape:version="0.92.2 (5c3e80d, 2017-08-06)"><metadata
     id="metadata39"><rdf:RDF><cc:Work
         rdf:about=""><dc:format>image/svg+xml</dc:format><dc:type
           rdf:resource="http://purl.org/dc/dcmitype/StillImage" /><dc:title></dc:title></cc:Work></rdf:RDF></metadata><sodipodi:namedview
     pagecolor="#ffffff"
     bordercolor="#666666"
     borderopacity="1"
     objecttolerance="10"
     gridtolerance="10"
     guidetolerance="10"
     inkscape:pageopacity="0"
     inkscape:pageshadow="2"
     inkscape:window-width="640"
     inkscape:window-height="480"
     id="namedview37"
     showgrid="false"
     inkscape:zoom="0.82516037"
     inkscape:cx="230.25827"
     inkscape:cy="78.894048"
     inkscape:window-x="901"
     inkscape:window-y="135"
     inkscape:window-maximized="0"
     inkscape:current-layer="svg35" /><defs
     id="defs4"><style
       type="text/css"
       id="style2"><![CDATA[
    .fil1 {fill:#1F1B20}
    .fil0 {fill:#2B2A29;fill-rule:nonzero}
    .fil2 {fill:#FFED00;fill-rule:nonzero}
   ]]></style></defs><g
     id="Layer_x0020_1"><metadata
       id="CorelCorpID_0Corel-Layer" /><path
       class="fil0"
       d="M33 4266c-4,-59 6,-157 31,-293 13,-69 27,-137 40,-206 42,-11 70,-18 86,-23 32,-11 54,-21 69,-33 -3,28 -17,101 -42,221 -21,104 -32,176 -30,215 2,39 12,58 30,57 16,-1 37,-17 62,-49 22,-29 39,-58 51,-88 -2,-35 -4,-83 -5,-144 -2,-64 -3,-107 -4,-129 30,2 73,-14 129,-49 6,91 11,182 17,273 9,124 19,200 33,228 -28,11 -53,20 -75,29 -53,21 -87,37 -101,47 -3,-16 -4,-62 -4,-139 -18,27 -49,56 -92,88 -40,30 -69,47 -88,51 -5,1 -11,2 -17,2 -21,1 -40,-2 -57,-10 -21,-11 -32,-27 -33,-48zm651 -235c-10,69 -18,139 -24,210 -25,12 -60,29 -105,50 0,13 -1,-79 -2,-275 -1,-105 0,-192 2,-261l1 -21c10,2 20,3 31,3 27,0 55,-5 83,-14 30,-10 53,-22 69,-38 -3,22 -15,99 -37,231 18,-4 38,-8 61,-11 25,-3 47,-6 68,-10 0,-40 0,-71 0,-94 0,-49 0,-82 -2,-98 74,-11 147,-26 217,-47 -32,68 -74,279 -124,633 -25,0 -59,6 -102,18 4,-122 6,-224 8,-306 -23,2 -58,9 -105,20 -14,4 -27,7 -39,10zm686 -199l-74 447c-25,0 -59,7 -102,23 4,-209 6,-354 4,-434 -51,11 -89,21 -115,32 -1,-3 -6,-25 -17,-64 -9,-34 -14,-58 -16,-75l125 -25c29,-2 77,-13 145,-33 72,-21 121,-39 147,-56 -9,42 -18,95 -27,158 -16,10 -39,19 -70,27zm499 172c-7,0 -19,0 -36,-2 -21,-1 -37,-1 -48,-1 -59,0 -109,14 -152,43 -1,7 -1,15 -1,22 0,68 18,103 53,104 25,0 42,-8 50,-24 7,-18 13,-36 19,-54 31,33 63,60 97,82 -8,15 -16,30 -25,46 -13,20 -31,36 -52,48 -29,15 -66,24 -112,26 -52,3 -94,-23 -127,-77 -28,-44 -41,-85 -40,-125 1,-74 17,-147 48,-220 48,-112 119,-168 213,-168 46,0 80,24 102,71 17,36 26,81 26,136 0,54 -5,85 -15,93zm-91 -71c0,-47 -1,-80 -4,-98 -6,-46 -20,-68 -41,-67 -35,3 -65,67 -90,193 37,-19 73,-29 108,-29 9,0 18,0 27,1zm586 52c-14,81 -28,140 -42,175 -32,83 -79,125 -140,125 -28,0 -59,-17 -93,-53 -4,103 -3,186 4,247 -12,2 -25,4 -38,4 -24,0 -48,-4 -71,-13 -7,-71 -15,-193 -23,-364 -8,-171 -14,-279 -19,-322 71,-32 134,-65 187,-101 0,21 -3,63 -8,125 39,-58 78,-92 117,-103 9,-2 18,-4 26,-4 27,0 50,16 70,46 23,34 34,91 34,170 0,27 -2,50 -4,68zm-113 11c5,-25 7,-52 7,-80 0,-74 -11,-110 -34,-110 -21,0 -44,19 -70,57 -18,26 -33,54 -45,84 -1,16 -1,41 0,74 2,34 2,59 1,76 21,43 41,64 58,64 3,0 6,0 10,-1 30,-8 54,-63 73,-164zm314 35c-10,69 -19,139 -25,210 -24,12 -59,29 -105,50 0,13 0,-79 -2,-275 0,-105 1,-192 3,-261l1 -21c9,2 19,3 30,3 27,0 55,-5 83,-14 30,-10 53,-22 69,-38 -3,22 -15,99 -37,231 18,-4 39,-8 61,-11 25,-3 48,-6 68,-10 0,-40 1,-71 1,-94 0,-49 -1,-82 -3,-98 74,-11 147,-26 217,-47 -32,68 -73,279 -124,633 -24,0 -58,6 -102,18 4,-122 7,-224 8,-306 -23,2 -58,9 -104,20 -15,4 -28,7 -39,10zm763 -27c-6,0 -18,0 -36,-2 -20,-1 -36,-1 -47,-1 -59,0 -110,14 -153,43 0,7 0,15 0,22 0,68 17,103 53,104 25,0 41,-8 50,-24 6,-18 13,-36 19,-54 31,33 63,60 97,82 -9,15 -17,30 -25,46 -14,20 -31,36 -52,48 -29,15 -67,24 -113,26 -51,3 -93,-23 -127,-77 -27,-44 -40,-85 -40,-125 2,-74 18,-147 49,-220 48,-112 119,-168 213,-168 45,0 80,24 102,71 17,36 26,81 26,136 0,54 -6,85 -16,93zm-90 -71c0,-47 -1,-80 -4,-98 -6,-46 -20,-68 -41,-67 -35,3 -65,67 -90,193 37,-19 73,-29 108,-29 9,0 18,0 27,1zm455 -101l-75 447c-25,0 -59,7 -102,23 5,-209 6,-354 5,-434 -51,11 -90,21 -116,32 0,-3 -5,-25 -16,-64 -9,-34 -15,-58 -17,-75l125 -25c29,-2 78,-13 146,-33 72,-21 121,-39 146,-56 -9,42 -18,95 -27,158 -15,10 -38,19 -69,27zm612 -28c-25,79 -53,137 -86,173 -48,0 -113,3 -196,9 -100,8 -167,18 -200,28 3,-17 14,-45 32,-83 16,-34 30,-61 44,-81 18,-4 88,-11 209,-19 109,-8 175,-17 197,-27zm30 516c23,-67 48,-150 77,-250 32,-114 53,-202 65,-265 22,-18 52,-35 90,-51 37,-16 67,-26 91,-29 -1,23 -2,47 -2,73 -1,105 8,196 26,273 28,-55 49,-140 61,-255 16,-8 39,-21 70,-40 38,-25 64,-41 78,-49 17,61 34,159 51,293 16,121 23,196 22,227 -24,14 -55,29 -91,45 -47,19 -72,30 -74,31 8,-80 12,-139 12,-176 1,-71 -8,-134 -25,-190 -4,16 -14,67 -31,154 -13,65 -25,112 -37,142 -12,11 -26,18 -43,22 -17,2 -34,4 -52,7 2,-56 -1,-112 -8,-166 -1,-6 -9,-58 -25,-157 -23,118 -53,233 -90,343 -61,-4 -116,2 -165,18zm1066 -23c-52,0 -99,7 -141,19 0,-21 -1,-46 -1,-74 -51,42 -91,63 -118,63 -49,0 -86,-22 -111,-64 -16,-29 -25,-60 -25,-91 0,-57 12,-100 36,-129 15,-20 45,-41 89,-64 38,-20 62,-33 73,-40 33,-21 61,-44 81,-70 4,-19 5,-35 5,-48 0,-28 -8,-43 -26,-43 -19,-1 -37,12 -55,39 -17,25 -27,52 -33,82 -44,-21 -87,-36 -131,-45 21,-49 53,-87 96,-113 32,-19 61,-29 86,-29 25,0 55,11 91,32 42,26 67,54 74,87 12,55 15,136 9,242 -6,115 -6,197 1,246zm-136 -339c-30,7 -57,24 -80,49 -26,28 -41,63 -44,103 -2,22 4,40 18,53 12,11 26,17 43,18 24,1 43,-23 57,-71 1,-61 3,-112 6,-152zm338 -118l-5 51c-2,42 -3,108 -2,198 0,78 -2,143 -7,194 -34,-3 -89,9 -166,35 8,-29 14,-65 20,-110 5,-35 11,-94 18,-175 7,-82 13,-141 18,-180 6,-42 12,-78 18,-108 52,-7 165,-23 340,-47 2,65 -4,125 -17,179 -27,-22 -51,-35 -71,-41 -70,1 -118,2 -146,4zm651 457c-51,0 -98,7 -140,19 -1,-21 -1,-46 -1,-74 -52,42 -91,63 -119,63 -49,0 -86,-22 -110,-64 -17,-29 -25,-60 -25,-91 0,-57 12,-100 36,-129 15,-20 44,-41 89,-64 37,-20 62,-33 72,-40 34,-21 61,-44 82,-70 3,-19 5,-35 5,-48 0,-28 -9,-43 -27,-43 -18,-1 -36,12 -54,39 -17,25 -28,52 -33,82 -44,-21 -88,-36 -131,-45 21,-49 53,-87 96,-113 32,-19 61,-29 86,-29 25,0 55,11 91,32 42,26 67,54 74,87 12,55 15,136 9,242 -7,115 -6,197 0,246zm-135 -339c-31,7 -57,24 -80,49 -26,28 -41,63 -45,103 -1,22 5,40 19,53 12,11 26,17 43,18 23,1 42,-23 57,-71 1,-61 3,-112 6,-152zm581 -216c50,56 27,116 -68,178 43,2 79,17 108,44 31,31 47,69 47,117 0,53 -30,107 -90,161 -62,55 -126,83 -193,83 -50,0 -117,-33 -201,-100 12,-9 29,-25 52,-48 23,-23 41,-40 54,-50 55,40 100,60 136,60 48,-52 69,-94 62,-123 -7,-29 -24,-44 -52,-44 -25,0 -39,1 -45,2 -6,1 -13,6 -23,13 -10,-30 -32,-58 -68,-85 62,-27 106,-53 133,-78 18,-43 3,-61 -43,-56 -32,17 -61,35 -88,56 -41,-51 -61,-85 -61,-101 176,-76 290,-85 340,-29zm140 524c-4,-59 6,-157 31,-293 14,-69 27,-137 41,-206 41,-11 70,-18 85,-23 32,-11 55,-21 69,-33 -3,28 -16,101 -41,221 -22,104 -32,176 -30,215 1,39 11,58 30,57 16,-1 36,-17 61,-49 22,-29 39,-58 51,-88 -2,-35 -4,-83 -5,-144 -1,-64 -3,-107 -4,-129 30,2 73,-14 129,-49 6,91 12,182 18,273 8,124 19,200 32,228 -28,11 -53,20 -75,29 -53,21 -87,37 -101,47 -3,-16 -4,-62 -4,-139 -18,27 -49,56 -92,88 -40,30 -69,47 -88,51 -5,1 -10,2 -17,2 -21,1 -40,-2 -56,-10 -21,-11 -33,-27 -34,-48zm652 -235c-10,69 -19,139 -25,210 -24,12 -59,29 -105,50 0,13 0,-79 -2,-275 0,-105 1,-192 3,-261l1 -21c9,2 19,3 30,3 27,0 55,-5 83,-14 30,-10 53,-22 69,-38 -3,22 -15,99 -37,231 18,-4 39,-8 61,-11 25,-3 48,-6 68,-10 0,-40 1,-71 1,-94 0,-49 -1,-82 -3,-98 74,-11 147,-26 217,-47 -32,68 -73,279 -124,633 -24,0 -58,6 -102,18 4,-122 7,-224 8,-306 -23,2 -58,9 -104,20 -15,4 -28,7 -39,10zm1138 -249c1,59 -14,156 -45,291 -17,67 -34,135 -51,203 -41,9 -71,15 -86,20 -32,8 -56,18 -71,29 4,-28 22,-100 52,-219 27,-103 41,-174 41,-214 0,-39 -9,-58 -28,-58 -16,0 -37,15 -63,46 -24,28 -42,56 -56,85 1,36 0,84 -1,145 -2,64 -2,107 -2,129 -31,-4 -74,10 -132,43 -1,-91 -3,-182 -4,-273 -3,-125 -10,-202 -22,-230 28,-9 54,-18 77,-25 54,-19 88,-33 102,-42 3,16 2,62 -2,139 19,-26 51,-54 96,-84 41,-28 71,-43 90,-47 5,-1 11,-1 17,-1 22,0 41,4 57,13 20,12 30,28 31,50zm442 193c2,84 -21,161 -69,232 -51,73 -110,110 -179,109 -50,0 -87,-31 -110,-91 -16,-40 -24,-82 -23,-125 0,-62 18,-129 52,-203 48,-103 113,-154 193,-154 56,0 94,25 115,76 12,31 19,84 21,156zm-124 -18c0,-89 -7,-134 -21,-134 -2,0 -3,1 -4,1 -68,23 -102,112 -102,267 0,79 10,119 30,119 3,0 5,-1 8,-2 28,-15 50,-54 68,-117 14,-49 21,-94 21,-134zm464 -2c-12,-90 -32,-135 -61,-135 -22,0 -42,26 -59,80 -15,47 -23,91 -23,133 0,33 5,65 14,94 12,40 29,62 53,66 7,1 21,-15 41,-48 9,-53 21,-117 35,-190zm60 360c-7,37 -13,60 -18,72 -2,7 -11,19 -24,36 -22,28 -61,48 -118,59 -34,-3 -61,-10 -79,-21 -12,-8 -28,-23 -46,-46 37,-40 66,-80 85,-121 13,38 20,58 22,62 12,27 27,47 45,61 7,-34 13,-69 20,-103l0 0 12 -69c-26,27 -60,40 -102,40 -54,0 -96,-40 -125,-121 -20,-54 -30,-101 -30,-140 0,-51 22,-111 64,-179 50,-81 106,-121 169,-121 13,0 32,10 57,30 33,28 54,43 60,47 10,-41 15,-69 15,-83 22,7 51,14 89,21 34,6 57,9 68,9 -42,71 -81,180 -115,327 -17,80 -33,160 -49,240zm528 -18c-51,0 -98,7 -140,19 -1,-21 -1,-46 -2,-74 -51,42 -90,63 -118,63 -49,0 -86,-22 -110,-64 -17,-29 -25,-60 -25,-91 0,-57 12,-100 35,-129 16,-20 45,-41 90,-64 37,-20 62,-33 72,-40 34,-21 61,-44 81,-70 4,-19 6,-35 6,-48 0,-28 -9,-43 -27,-43 -18,-1 -36,12 -55,39 -16,25 -27,52 -32,82 -44,-21 -88,-36 -131,-45 21,-49 52,-87 96,-113 32,-19 61,-29 86,-29 25,0 55,11 91,32 42,26 67,54 74,87 12,55 15,136 9,242 -7,115 -6,197 0,246zm-135 -339c-31,7 -57,24 -80,49 -26,28 -41,63 -45,103 -1,22 5,40 19,53 12,11 26,17 43,18 23,1 42,-23 56,-71 2,-61 4,-112 7,-152zm619 27c-13,81 -27,140 -41,175 -32,83 -79,125 -140,125 -29,0 -60,-17 -93,-53 -4,103 -3,186 4,247 -12,2 -25,4 -39,4 -24,0 -47,-4 -70,-13 -8,-71 -15,-193 -23,-364 -8,-171 -15,-279 -19,-322 71,-32 133,-65 186,-101 0,21 -2,63 -7,125 39,-58 78,-92 117,-103 9,-2 18,-4 26,-4 27,0 50,16 70,46 22,34 34,91 34,170 0,27 -2,50 -5,68zm-112 11c5,-25 7,-52 7,-80 0,-74 -11,-110 -34,-110 -21,0 -44,19 -70,57 -18,26 -33,54 -45,84 -2,16 -2,41 0,74 2,34 2,59 1,76 21,43 40,64 57,64 4,0 7,0 11,-1 30,-8 54,-63 73,-164zm569 -217c-77,101 -148,159 -213,175 35,87 86,169 154,244 -11,20 -30,40 -57,61 -23,19 -46,34 -69,45 -25,-44 -38,-69 -41,-74 -19,-43 -33,-90 -41,-143 -15,100 -22,163 -22,190 -23,12 -64,21 -122,25l54 -583c6,1 13,1 21,1 65,0 111,-16 140,-48l-28 144c-1,15 -2,31 -3,47 62,-60 108,-119 139,-178 -1,9 9,24 30,45 17,18 37,34 58,49zm417 196c2,84 -21,161 -69,232 -51,73 -111,110 -179,109 -50,0 -87,-31 -110,-91 -16,-40 -24,-82 -23,-125 0,-62 18,-129 52,-203 48,-103 113,-154 193,-154 56,0 94,25 114,76 13,31 20,84 22,156zm-124 -18c0,-89 -7,-134 -21,-134 -2,0 -3,1 -4,1 -68,23 -103,112 -103,267 0,79 11,119 31,119 3,0 5,-1 8,-2 28,-15 50,-54 68,-117 14,-49 21,-94 21,-134zm439 55c-8,-4 -15,-6 -23,-6 -16,0 -34,9 -53,27 -11,11 -29,32 -55,63 -2,11 -5,21 -8,32 7,22 13,37 17,44 7,13 17,20 30,20 29,1 53,-17 73,-53 17,-30 25,-62 27,-94 1,-19 -2,-30 -8,-33zm-8 -251c-20,0 -40,15 -60,44 -19,28 -28,52 -28,74 0,15 6,23 19,23 21,0 41,-15 60,-43 17,-26 25,-51 25,-73 0,-17 -5,-25 -16,-25zm77 101c33,0 57,18 73,53 10,23 15,49 15,78 0,27 -10,64 -29,111 -23,55 -50,100 -81,136 -40,44 -82,66 -125,66 -25,0 -57,-21 -96,-62 -3,27 -3,47 -2,60 -28,6 -55,7 -80,3 0,-23 1,-49 2,-79 3,-70 10,-174 23,-313 11,-127 17,-201 17,-222 28,-2 56,-4 84,-6 36,-3 65,-10 88,-20 1,2 -3,17 -14,44 25,-26 46,-39 65,-39 61,0 91,36 91,109 0,18 -10,45 -31,81z"
       id="path7" /><path
       class="fil1"
       d="M5665 2128c-6,12 -12,24 -18,37 3,0 6,0 9,-1 3,-12 6,-24 9,-36z"
       id="path9" /><path
       class="fil1"
       d="M697 3106c-79,22 -156,48 -228,75l-258 96 36 -273c51,-386 127,-752 214,-1129 -61,24 -122,48 -182,73l-279 114 53 -296c33,-184 107,-444 198,-607l30 -54 58 -21c436,-156 893,-260 1354,-302l245 -23c5,-9 11,-18 16,-27l35 -55 63 -18c239,-65 547,-129 795,-135l222 -6 -58 214c-44,165 -81,333 -112,502 96,-24 194,-38 292,-41l51 -2c105,-249 223,-491 355,-728l35 -63 71 -17c214,-50 450,-83 668,-109 127,-15 255,-27 382,-32l223 -9 -56 216c-125,487 -242,998 -307,1501 14,-1 28,-2 41,-4l77 -10c333,-610 702,-1198 1088,-1776l39 -59 70 -13c308,-54 640,-84 953,-86l226 -2 -67 216c-86,278 -150,571 -204,861 37,-7 75,-14 112,-17 68,-6 140,-1 208,2l44 1c96,-217 200,-434 314,-641l33 -61 68 -19c117,-32 240,-54 360,-71 165,-25 340,-43 507,-48l250 -8 -76 194 4 -5 57 -15c249,-67 536,-97 793,-111l271 -13 -112 247c-18,39 -35,80 -51,122 218,-55 498,-87 713,-94l250 -8 -60 156 9 -3c218,-59 469,-86 695,-98l270 -14 -111 247c-77,171 -132,373 -178,554 -83,327 -148,661 -205,994 -7,41 -15,84 -22,126 18,-11 36,-22 54,-32l27 -115c69,-291 159,-581 257,-864 113,-331 240,-659 376,-981l31 -72 74 -22c288,-86 726,-108 1023,-62l262 41 -153 218c-90,129 -178,261 -266,393 -134,202 -267,405 -397,610 -103,161 -205,323 -303,487 -77,129 -155,260 -223,393l-50 97c47,65 69,143 58,228 -18,152 -112,269 -235,355 -112,79 -242,128 -381,122 -21,0 -43,-1 -63,-4 -158,-19 -257,-102 -302,-220 -182,28 -365,65 -546,101l-217 42 21 -220c0,-6 1,-12 1,-17l-71 -4c-101,-6 -240,9 -338,29l-238 50 41 -240c0,-2 1,-5 1,-7l-16 2c-79,11 -158,22 -236,35 -9,1 -18,2 -28,4 -3,28 -6,56 -8,84l-11 130 -129 20c-216,32 -433,76 -647,117l-217 43 21 -220c1,-15 3,-31 4,-46l-107 -6c-118,-7 -280,10 -396,34l-238 49 42 -239c2,-14 5,-28 7,-42l-52 7c-346,48 -477,71 -806,197l-1 26 -156 4c-254,8 -507,25 -760,52l-215 23 34 -213c6,-40 13,-80 20,-120 -51,3 -102,7 -153,13 -35,70 -67,139 -91,217l-34 116 -121 2c-116,2 -232,5 -347,15 -124,11 -247,31 -370,52l-312 53 115 -246c-48,4 -97,10 -145,16l-205 29 17 -206c2,-23 5,-46 9,-69 -76,4 -152,10 -225,17 -120,10 -251,22 -374,41 -17,49 -32,99 -46,150l-32 117 -121 5c-200,8 -395,36 -591,74l-275 54 86 -266c-103,11 -206,24 -309,39l-206 31 17 -207c1,-13 2,-26 4,-39 -10,2 -19,4 -29,5 -21,50 -40,99 -60,151l-36 96 -102 10c-194,20 -424,64 -611,122l-338 104 55 -131zm6206 -1306c-8,-1 -16,-1 -24,-1 -52,0 -114,11 -165,17l-11 2c-60,384 -64,594 -76,984 83,-404 138,-614 276,-1002zm-5662 160c60,-110 121,-220 183,-329 -35,4 -70,8 -106,15 -28,106 -54,211 -77,314zm1539 154c42,-8 85,-15 127,-22 21,-58 41,-116 61,-174 -50,7 -99,17 -150,30l-21 5c-6,54 -12,107 -17,161zm1172 -723c-82,161 -168,403 -236,623 26,-3 52,-5 78,-8 42,-206 109,-411 158,-615zm1875 166c-82,160 -168,403 -236,623 26,-3 52,-6 78,-8 42,-206 109,-411 158,-615z"
       id="path11" /><g
       id="_1709228259296"><path
         class="fil2"
         d="M6124 748c-216,318 -504,904 -801,1521 141,-12 278,-17 409,-14 184,-752 321,-1325 392,-1507zm704 -656c-91,295 -177,684 -259,1168 -100,593 -163,973 -179,1499 -197,5 -450,18 -773,53 16,-102 40,-242 54,-313 -164,-6 -309,5 -459,28 -40,79 -100,187 -141,321 -301,5 -435,17 -742,70 439,-941 915,-1755 1574,-2742 245,-43 603,-82 925,-84z"
         id="path13" /><path
         class="fil2"
         d="M3143 1283c-53,138 -93,268 -123,382 -107,8 -196,22 -297,48 20,-142 40,-263 71,-367 126,-42 244,-60 349,-63z"
         id="path15" /><path
         class="fil2"
         d="M7097 1152c-52,122 -104,260 -140,392 -141,-10 -118,-12 -306,12 14,-125 35,-248 78,-372 182,-43 177,-39 368,-32z"
         id="path17" /><path
         class="fil2"
         d="M11083 3050c-18,0 -33,-1 -47,-3 -141,-17 -200,-109 -180,-275 9,-78 60,-148 153,-210 93,-62 180,-89 261,-79 78,10 142,36 191,78 54,45 78,97 71,157 -11,89 -66,168 -166,239 -96,67 -191,97 -283,93z"
         id="path19" /><path
         class="fil2"
         d="M12741 434c-182,260 -945,1404 -1201,1903 -67,-42 -247,-71 -372,-27 116,-493 347,-1164 624,-1819 274,-82 694,-97 949,-57z"
         id="path21" /><path
         class="fil2"
         d="M9465 368c-133,293 -294,878 -458,1824 -48,276 -78,491 -92,644 -137,21 -355,61 -653,119 53,-574 215,-1128 357,-1690 -242,338 -408,817 -615,1458 -141,-8 -340,16 -439,37 92,-528 210,-994 231,-1531 -243,494 -391,898 -445,1211 -6,31 -11,62 -17,93 -131,18 -466,62 -568,101 190,-925 661,-1882 839,-2207 251,-70 643,-109 828,-114 -139,354 -312,861 -310,1239 183,-344 356,-763 583,-1079 234,-63 535,-93 759,-105z"
         id="path23" /><path
         class="fil2"
         d="M11180 677c-115,255 -254,764 -396,1587 -41,241 -67,427 -79,561 -120,18 -309,53 -568,104 45,-499 185,-981 308,-1470 -210,293 -353,710 -533,1268 -123,-6 -296,15 -382,33 79,-459 182,-864 199,-1332 -210,431 -339,782 -386,1054 -4,27 -9,54 -14,81 -114,16 -406,55 -494,89 164,-806 573,-1638 727,-1922 218,-60 559,-95 720,-100 -120,308 -270,750 -268,1079 159,-300 309,-664 506,-940 203,-55 465,-81 660,-92z"
         id="path25" /><path
         class="fil2"
         d="M3859 2078c126,-651 266,-1081 316,-1240 -61,9 -189,19 -267,40 -132,259 -373,891 -456,1238 86,-6 277,-30 407,-38zm-746 492c-47,130 -61,175 -82,253 -233,9 -439,43 -615,77 52,-163 170,-483 287,-689 71,-13 213,-37 273,-43 194,-548 352,-1055 711,-1699 192,-45 674,-123 1019,-137 -138,540 -276,1164 -333,1717 52,-7 195,-6 250,-14 -59,235 -89,414 -118,681 -154,-6 -321,-3 -513,25 7,-84 27,-153 46,-252 -233,-6 -739,44 -925,81z"
         id="path27" /><path
         class="fil2"
         d="M2270 1143c-155,248 -358,717 -567,1194 98,-16 197,-27 295,-34 118,-576 223,-1020 272,-1160zm528 -529c-62,227 -127,536 -176,905 -59,454 -97,745 -94,1145 -159,7 -342,23 -603,62 7,-79 19,-141 33,-236 -111,2 -224,16 -340,47 -43,92 -61,138 -97,235 -190,19 -458,71 -643,128 307,-728 690,-1388 1163,-2156 146,-40 506,-124 757,-130z"
         id="path29" /><path
         class="fil2"
         d="M1476 1391c-123,10 -207,13 -328,49 -138,485 -197,876 -194,1361 -199,21 -419,83 -597,150 78,-590 180,-976 278,-1399 -120,24 -354,119 -473,168 25,-141 97,-406 179,-555 360,-129 809,-248 1313,-294 -61,142 -128,322 -178,520z"
         id="path31" /></g></g></svg>