<?xml version="1.0" encoding="utf-8"?><svg xmlns="http://www.w3.org/2000/svg" xmlns:xlink="http://www.w3.org/1999/xlink"><symbol viewBox="0 0 140.95161 136.11797" id="admin" xmlns="http://www.w3.org/2000/svg"><defs id="adefs2"><path id="aSVGID_1_" d="M0 0h467.2v414.4H0z"/></defs><g id="alayer1" transform="translate(-.755 -.335)"><path d="M2.883 133.653c-4.476-5.838-1.563-18.995 5.668-25.6 3.642-3.328 6.618-4.519 15.795-6.32 10.855-2.131 12.578-2.999 17.906-9.012 1.314-1.484 2.99-2.697 3.727-2.697.736 0 6.686 4.259 13.22 9.464 10.462 8.333 12.15 9.258 14.12 7.737 1.23-.95 6.732-5.21 12.225-9.465 5.494-4.255 10.538-7.736 11.21-7.736.673 0 3.097 2.162 5.388 4.804 3.734 4.308 5.165 4.968 13.82 6.381 10.714 1.75 17.056 5.021 21.555 11.12 3.953 5.36 5.448 15.284 3.003 19.944l-1.85 3.529-66.82.325-66.82.326zm60.44-4.12c.473-1.722.472-4.057-.003-5.187-.799-1.902-1.047-1.903-3.345-.003-1.365 1.129-2.844 2.052-3.287 2.052-.443 0-4.948-5.289-10.012-11.752l-9.207-11.753-10.864 2.154c-12.36 2.45-18.123 6.34-20.377 13.755-1.56 5.132-1.795 11.809-.457 13.03.504.46 13.465.837 28.803.837h27.888zm11.547-.002c0-2.509-.687-3.136-3.433-3.136-1.887 0-3.432.518-3.432 1.152 0 .633-.375 2.044-.833 3.135-.65 1.547.107 1.984 3.432 1.984 3.635 0 4.266-.464 4.266-3.135zm61.462-4.39c.65-12.05-4.967-17.234-22.258-20.545l-8.936-1.712-8.487 10.815c-4.668 5.948-8.976 11.322-9.573 11.942-.623.647-2.576.235-4.587-.97l-3.503-2.096v4.21c0 2.315.424 4.596.943 5.07.518.474 13.337.71 28.486.523l27.543-.339zm-60.69-3.89c.513-.759-.374-2.575-1.973-4.035-2.695-2.462-3.071-2.506-5.16-.598-1.238 1.131-1.878 2.948-1.42 4.036.945 2.252 7.14 2.685 8.553.598zm-14.053-14.716c-3.644-2.99-8.694-6.91-11.223-8.71l-4.598-3.272-2.52 3.053c-2.469 2.99-2.456 3.133.603 6.828 1.719 2.077 5.472 6.775 8.342 10.442l5.216 6.666 5.403-4.785 5.402-4.785zm32.5 3.781c6.672-8.479 7.088-9.414 5.44-12.228-.982-1.676-2.36-3.048-3.064-3.048-.703 0-5.878 3.76-11.498 8.356l-10.22 8.356 5.143 4.811c2.828 2.646 5.555 4.39 6.059 3.873.504-.517 4.167-5.07 8.14-10.12zM31.773 94.311c-.458-1.091-.833-7.513-.833-14.27 0-9.53-.474-12.645-2.113-13.888-1.635-1.24-2.023-3.757-1.716-11.128.358-8.586.71-9.649 3.574-10.78 2.986-1.179 3.118-1.703 2.201-8.779-2.246-17.342.486-26.487 8.706-29.138 2.07-.667 5.925-1.912 8.568-2.766C62.36-.382 65.48-.52 83.107 2.11c9.438 1.409 18.977 2.717 21.199 2.908 3.337.287 4.259 1.11 5.303 4.737 1.282 4.452.449 25.872-1.208 31.042-.733 2.287-.362 2.822 1.954 2.822 4.576 0 6.085 4.339 5.411 15.556-.428 7.117-1.504 11.736-3.597 15.442-3.29 5.824-11.471 11.644-16.369 11.644-1.728 0-5.638 1.509-8.687 3.352-7.222 4.367-18.135 5.333-26.655 2.36-7.014-2.448-17.501-12.325-20.126-18.957-.94-2.372-2.51-4.314-3.49-4.314-1.356 0-1.784 3.318-1.784 13.797 0 12.656-1.168 16.854-3.286 11.812zm49.663-6.25c4.755-1.83 4.93-2.08 2.568-3.677-1.395-.942-3.355-1.426-4.355-1.076-1 .351-3.102.01-4.671-.757-3.199-1.564-3.91-7.365-1.206-9.835 2.118-1.935 6.943-1.935 9.06 0 .907.828 1.648 2.69 1.648 4.139 0 3.87 2.643 5.644 8.407 5.644 5.785 0 12.347-4.256 15.702-10.183 1.977-3.492 1.936-3.614-1.213-3.614-2.474 0-3.855 1.209-5.735 5.017-1.362 2.76-3.31 5.017-4.327 5.017-2.492 0-2.345-1.104.984-7.4 4.118-7.785 5.026-20.858 1.96-28.194-2.374-5.678-2.692-5.902-12.196-8.575-7.55-2.124-13.33-2.759-25.528-2.804l-15.77-.06-3.025 7.526C32.229 67.853 55.523 98.027 81.435 88.06zM80.36 76.78c0-.994-.927-1.808-2.06-1.808-2.067 0-2.821 2.648-1.18 4.147 1.28 1.17 3.24-.244 3.24-2.34zM36.15 56.487c-.33-6.877-.854-8.53-2.808-8.871-2.086-.364-2.403.64-2.403 7.616 0 8.33.529 9.708 3.724 9.708 1.462 0 1.8-1.926 1.487-8.453zm74.32 6.673c2.515-2.768 1.332-15.032-1.497-15.523-1.882-.327-2.37.975-2.816 7.513-.297 4.35-.317 8.332-.045 8.85.77 1.462 2.585 1.113 4.358-.84zM47.05 27.755c1.869-.429 10.283-.475 18.698-.103 17.562.775 32.512 4.414 35.81 8.715 1.143 1.491 2.477 2.346 2.965 1.9 1.246-1.139 2.458-22.626 1.477-26.197-.756-2.75-2.178-3.146-21.118-5.882C65.51 3.389 64.288 3.35 58.396 5.336c-3.398 1.146-8.34 2.579-10.983 3.185-8.158 1.873-10.986 6.17-10.964 16.668.01 4.963.43 10.429.933 12.146.848 2.898 1.107 2.693 3.592-2.839 1.913-4.258 3.65-6.185 6.076-6.741z" id="apath52" stroke-width="1.312"/></g><style id="astyle10">.st0{clip-path:url(#SVGID_2_);fill:#fff}</style></symbol><symbol viewBox="0 0 241.171 241.171" id="cancel" xmlns="http://www.w3.org/2000/svg"><path d="M138.138 120.754l99.118-98.576a11.931 11.931 0 0 0 0-17.011c-4.74-4.704-12.439-4.704-17.179 0l-99.033 98.492-99.949-99.96c-4.74-4.752-12.439-4.752-17.179 0-4.74 4.764-4.74 12.475 0 17.227l99.876 99.888L3.555 220.497c-4.74 4.704-4.74 12.319 0 17.011 4.74 4.704 12.439 4.704 17.179 0l100.152-99.599 99.551 99.563c4.74 4.752 12.439 4.752 17.179 0 4.74-4.764 4.74-12.475 0-17.227l-99.478-99.491z"/></symbol><symbol viewBox="0 0 135.48811 135.42773" id="design" xmlns="http://www.w3.org/2000/svg"><path d="M1.176 135.158c-.31-.15-.698-.566-.86-.921C-.108 133.305-.104 2.152.32 1.22.485.86.931.435 1.312.278 1.801.077 12.855.013 38.72.062l36.714.07 11.903 11.913L99.24 23.957v55.064c0 53.821-.011 55.078-.506 55.689l-.505.624-48.244.05c-32.916.033-48.423-.038-48.809-.226zm46.206-8.687v-4.498h-2.21c-2.447 0-3.754-.337-4.146-1.069-.142-.266-.259-2.694-.259-5.396v-4.912H39.21c-1.14 0-1.726-.136-2.183-.506l-.624-.505-.133-8.942-.132-8.942-1.867-1.07c-2.743-1.571-4.21-2.658-6.4-4.738-6.166-5.857-9.637-13.908-9.649-22.38-.009-6.689 1.63-12.213 5.298-17.864 1.448-2.23 6.207-7.063 8.293-8.421 8.19-5.334 17.647-6.874 26.55-4.323 9.37 2.684 17.427 10.09 20.807 19.125 5.462 14.597-.32 30.771-13.728 38.406l-2.18 1.242-.003 8.361c0 5.151-.108 8.667-.28 9.158-.341.982-1.204 1.399-2.893 1.399h-1.294l-.082 5.02c-.104 6.356.019 6.163-4.052 6.314l-2.777.103v8.936h43.128l-.067-51.925-.067-51.924-10.847-.14c-5.967-.077-10.875-.166-10.908-.198-.032-.033-.24-.41-.463-.84-.341-.66-.403-2.368-.403-11.112V4.498H4.519v126.471h42.862zM13.515 22.62v-2.248h29.369v4.498H13.515zm.177-6.922c-.097-.097-.177-1.11-.177-2.25v-2.072h11.377v4.498H19.38c-3.032 0-5.591-.08-5.688-.176zm40.569 98.336v-3.44h-8.996v6.88h8.996zm4.498-16.22c0-6.219.082-8.394.33-8.721.183-.24 1.313-.925 2.512-1.521 9.692-4.82 15.528-14.656 15.07-25.396-.183-4.264-.873-7.019-2.693-10.749-5.007-10.262-15.457-16.165-26.795-15.138-3.432.311-5.996 1.033-9.194 2.59-8.658 4.215-14.136 12.052-15.233 21.794-.866 7.698 2.064 15.865 7.74 21.577 2.36 2.375 4.418 3.874 7.287 5.305 1.196.597 2.298 1.314 2.447 1.594.15.28.273 2.184.273 4.23v3.722H51.88v4.498H40.503v4.498h18.256zm-11.2-14.383c-.098-.097-.177-5.542-.177-12.1V59.406l-2.973-2.981-2.973-2.982 1.517-1.516 1.516-1.517 2.584 2.574 2.584 2.574 2.573-2.573 2.574-2.573 1.593 1.576 1.593 1.577-3.045 3.053-3.045 3.052v23.938h-2.073c-1.14 0-2.152-.08-2.249-.176zm44.008-61.01c0-.038-3.333-3.4-7.408-7.473l-7.408-7.405V22.49h7.408c4.075 0 7.408-.031 7.408-.068zm33.963 112.735c-.31-.15-.712-.589-.892-.974-.18-.385-1.86-5.274-3.734-10.864l-3.408-10.163v-97.28h-4.498v65.352H108.5V12.474l.698-.549c.632-.497 1.053-.548 4.498-.548h3.8V6.504c0-2.68.074-5.066.165-5.302C118.074.127 119 0 126.467 0c7.57 0 8.207.09 8.727 1.232.213.466.294 16.03.294 56.129v55.484l-3.593 10.779c-2.954 8.862-3.713 10.874-4.269 11.311-.743.584-1.24.637-2.096.222zm2.753-14.448c.907-2.733 1.649-5.114 1.649-5.292 0-.239-.93-.323-3.55-.323h-3.548l1.759 5.291c.967 2.91 1.823 5.292 1.9 5.292.078 0 .884-2.236 1.79-4.968zm2.707-50.727V29.37h-8.996v81.227h8.996zm0-55.298V4.498h-8.996V24.87h8.996z" stroke-width=".265"/></symbol><symbol viewBox="0 0 24 24" id="fb" xmlns="http://www.w3.org/2000/svg"><path d="M12 2c5.514 0 10 4.486 10 10s-4.486 10-10 10S2 17.514 2 12 6.486 2 12 2zm0-2C5.373 0 0 5.373 0 12s5.373 12 12 12 12-5.373 12-12S18.627 0 12 0zm-2 10H8v2h2v6h3v-6h1.82l.18-2h-2v-.833c0-.478.096-.667.558-.667H15V6h-2.404C10.798 6 10 6.792 10 8.308V10z"/></symbol><symbol viewBox="0 0 138.56493 162.37332" id="imarketing" xmlns="http://www.w3.org/2000/svg"><path d="M58.627 154.664c-4.445-4.24-8.63-7.71-9.298-7.71-.669 0-3.482-2.212-6.25-4.916-4.77-4.658-5.363-4.856-11.274-3.771C11.877 141.924-4.133 125.5.952 106.618 2 102.723 6.315 96.467 14.382 87.143c12.144-14.037 17.96-23.667 25.886-42.868 5.537-13.414 9.045-16.469 18.906-16.469 20.817 0 50.148 28.24 52.27 50.325 1.024 10.66-1.77 14.421-14.698 19.788-12.632 5.243-27.886 12.827-31.93 15.876-2.765 2.083-2.748 2.171 1.233 6.338 2.656 2.78 3.725 5.04 3.124 6.605-.645 1.68 1.36 4.76 6.827 10.492 6.674 6.998 7.74 8.866 7.74 13.581 0 7.194-4.443 11.562-11.76 11.562-4.474 0-6.491-1.165-13.353-7.71zm15.3 1.003c0-1.375-3.469-5.927-7.708-10.114-7.283-7.192-7.842-7.48-10.114-5.207-2.273 2.272-1.985 2.83 5.207 10.114 7.71 7.806 12.615 9.831 12.615 5.207zm-1.911-15.5c-10.574-10.573-11.756-8.13-1.437 2.968 5.29 5.69 8.43 8.15 8.745 6.854.27-1.113-3.019-5.532-7.308-9.822zm-15.977-13.126l-3.11-3.11-5.61 5.476-5.608 5.477 3.077 3.276 3.077 3.275 5.642-5.642 5.642-5.641zm-20.918 5.69c1.684-.885 7.168-5.458 12.187-10.163 10.712-10.042 22.096-17.842 33.225-22.764l7.988-3.532-8.875-4.26c-11.963-5.741-26.354-20.031-31.77-31.545-2.247-4.78-4.491-8.722-4.986-8.761-.494-.039-1.968 2.61-3.274 5.887-4.108 10.3-11.759 21.636-22.5 33.335C5.389 103.702 3.018 109.217 5.4 118.174c1.709 6.42 4.306 9.82 10.355 13.556 4.747 2.933 14.707 3.447 19.366 1zm25.973-10.539c-1.83-1.948-3.458-2.76-3.754-1.873-.697 2.091 3.992 7.164 5.666 6.129.726-.449-.135-2.364-1.912-4.256zm43.21-33.522c3.15-3.151 3.506-4.41 2.767-9.803-2.79-20.352-30.21-46.856-48.476-46.856-7.722 0-11.311 3.683-11.27 11.565.03 5.998 4.427 17.872 6.617 17.872.648 0 3.964-2.839 7.37-6.308 7.416-7.557 11.247-8.01 19.176-2.266 5.097 3.692 10.26 11.507 10.26 15.528 0 .893-3.237 5.046-7.193 9.23l-7.192 7.604 7.543 3.511c9.879 4.6 15.744 4.577 20.397-.077zm-27.476-9.804c3.33-3.545 3.34-3.635.595-5.15-3.71-2.046-11.26-9.627-12.22-12.268-.61-1.676-1.572-1.322-4.741 1.744l-3.977 3.847 7.622 7.717c4.192 4.245 8.006 7.718 8.476 7.718.47 0 2.38-1.624 4.245-3.608zm8.313-11.914c0-3.829-8.402-12.433-12.558-12.86-7.247-.744-3.267 8.798 6.027 14.45 4.742 2.884 6.531 2.449 6.531-1.59zm26.633-4.803c0-1.881 2.003-2.146 13.667-1.803 17.676.519 17.433 3.07-.343 3.606-11.352.341-13.324.075-13.324-1.803zm-7.767-13.41c-.508-.822-.662-1.757-.342-2.077.793-.793 27.504-13.249 28.411-13.249.399 0 .724.983.724 2.184 0 1.391-4.867 4.443-13.415 8.41-15.158 7.036-14.147 6.724-15.378 4.732zm-10.199-11.19c.27-.81 4.855-6.802 10.19-13.317 8.901-10.87 13.383-14.308 13.383-10.264 0 2.636-19.608 25.052-21.914 25.052-1.182 0-1.929-.662-1.659-1.471zm-11.47-8.702c0-3.242 6.838-26.663 8.175-28 3.152-3.152 2.934 2.582-.597 15.723-2.428 9.038-4.45 14.04-5.676 14.04-1.046 0-1.903-.793-1.903-1.763z" stroke-width="1.402"/></symbol><symbol viewBox="0 0 24 24" id="in" xmlns="http://www.w3.org/2000/svg"><path d="M12 2c5.514 0 10 4.486 10 10s-4.486 10-10 10S2 17.514 2 12 6.486 2 12 2zm0-2C5.373 0 0 5.373 0 12s5.373 12 12 12 12-5.373 12-12S18.627 0 12 0zm0 7.082c1.602 0 1.792.006 2.425.035 1.627.074 2.385.845 2.46 2.459.028.633.034.822.034 2.424s-.006 1.792-.034 2.424c-.075 1.613-.832 2.386-2.46 2.46-.633.028-.822.035-2.425.035-1.602 0-1.792-.006-2.424-.035-1.63-.075-2.385-.849-2.46-2.46-.028-.632-.035-.822-.035-2.424s.007-1.792.035-2.424c.074-1.615.832-2.386 2.46-2.46.632-.029.822-.034 2.424-.034zM12 6c-1.63 0-1.833.007-2.474.037-2.18.1-3.39 1.309-3.49 3.489C6.007 10.167 6 10.371 6 12c0 1.63.007 1.834.036 2.474.1 2.179 1.31 3.39 3.49 3.49.641.029.844.036 2.474.036 1.63 0 1.834-.007 2.475-.036 2.176-.1 3.391-1.309 3.489-3.49.029-.64.036-.844.036-2.474 0-1.629-.007-1.833-.036-2.474-.098-2.177-1.309-3.39-3.489-3.489C13.834 6.007 13.63 6 12 6zm0 2.919a3.081 3.081 0 1 0 0 6.162 3.081 3.081 0 0 0 0-6.162zM12 14a2 2 0 1 1 0-4 2 2 0 1 1 0 4zm3.202-5.922a.72.72 0 1 0 0 1.44.72.72 0 0 0 0-1.44z"/></symbol><symbol id="lending" viewBox="0 0 467.2 414.4" xmlns="http://www.w3.org/2000/svg"><style id="gstyle31">.gst0{clip-path:url(#gSVGID_2_);fill:#fff}</style><g id="gg43"><g id="gg41"><defs id="gdefs34"><path id="gSVGID_1_" d="M0 0h467.2v414.4H0z"/></defs><clipPath id="gSVGID_2_"><use xlink:href="#gSVGID_1_" id="guse36" overflow="visible"/></clipPath><path class="gst0" d="M106.5 45.1c0 5.1-4.2 9.3-9.3 9.3h-1.4c-5.1 0-9.3-4.2-9.3-9.3 0-5.1 4.2-9.3 9.3-9.3h1.4c5.1 0 9.3 4.1 9.3 9.3zm31.3-9.3h-1.4c-5.1 0-9.3 4.2-9.3 9.3 0 5.1 4.2 9.3 9.3 9.3h1.4c5.1 0 9.3-4.2 9.3-9.3 0-5.2-4.2-9.3-9.3-9.3zm-81.2 0h-1.4c-5.1 0-9.3 4.2-9.3 9.3 0 5.1 4.2 9.3 9.3 9.3h1.4c5.1 0 9.3-4.2 9.3-9.3 0-5.2-4.2-9.3-9.3-9.3zm146.8 192c5.1 0 9.3 4.2 9.3 9.3v48.2c0 5.1-4.2 9.3-9.3 9.3H56.6c-5.1 0-9.3-4.2-9.3-9.3v-48.2c0-5.1 4.2-9.3 9.3-9.3h146.8zm-9.3 18.6H65.9V276h128.2v-29.6zM318.2 276h-63.4v-29.6h87.5c5.1 0 9.3-4.2 9.3-9.3 0-5.1-4.2-9.3-9.3-9.3h-96.8c-5.1 0-9.3 4.2-9.3 9.3v48.2c0 5.1 4.2 9.3 9.3 9.3h72.7c5.1 0 9.3-4.2 9.3-9.3-.1-5.2-4.2-9.3-9.3-9.3zM303 332c0 5.1-4.2 9.3-9.3 9.3H9.3c-5.1 0-9.3-4.2-9.3-9.3V9.3C0 4.2 4.2 0 9.3 0h430.3c5.1 0 9.3 4.2 9.3 9.3v229c0 5.1-4.2 9.3-9.3 9.3-5.1 0-9.3-4.2-9.3-9.3V90.4H384c-4 0-7.5-2.5-8.8-6.3-3.5-10.3-13.1-17.2-23.9-17.2h-87.1c-10.8 0-20.4 6.9-23.9 17.2-1.3 3.8-4.8 6.3-8.8 6.3H18.6v232.3h275.1c5.1 0 9.3 4.2 9.3 9.3zM18.6 71.9h206.8c7.5-14.3 22.3-23.5 38.8-23.5h87.1c16.5 0 31.3 9.2 38.8 23.5h40.2V18.6H18.6v53.3zm447.3 264.3c-1.6 3.1-4.8 5.1-8.3 5.1h-28.2v63.2c0 5.1-4.2 9.3-9.3 9.3h-43.6c-5.1 0-9.3-4.2-9.3-9.3v-63.2H339c-3.5 0-6.7-2-8.3-5.1-1.6-3.1-1.3-6.9.9-9.7l59.3-79.5c1.8-2.4 4.5-3.7 7.5-3.7 2.9 0 5.7 1.4 7.5 3.7l59.2 79.5c2.1 2.8 2.4 6.5.8 9.7zm-26.8-13.5l-40.7-54.6-40.7 54.6h18.9c5.1 0 9.3 4.2 9.3 9.3v63.2h25V332c0-5.1 4.2-9.3 9.3-9.3h18.9zm-46.8-115.4H56.6c-5.1 0-9.3-4.2-9.3-9.3v-66.5c0-5.1 4.2-9.3 9.3-9.3h335.7c5.1 0 9.3 4.2 9.3 9.3V198c0 5.2-4.2 9.3-9.3 9.3zm-9.3-66.5H65.9v47.9H383v-47.9zm0 0" clip-path="url(#gSVGID_2_)" id="gpath39"/></g></g></symbol><symbol id="letter" viewBox="0 0 850.8 838.1" xmlns="http://www.w3.org/2000/svg"><style id="hstyle76">.hst0{display:none}.hst1{display:inline;fill:#535353}.hst2{display:none;fill:none;stroke:#525252;stroke-width:10;stroke-miterlimit:10}.hst3{display:inline;fill-rule:evenodd;clip-rule:evenodd;fill:#535353}.hst4{display:none;fill:#525252}.hst5{display:inline}.hst6{clip-path:url(#hSVGID_2_);fill:#fff}.hst7{display:inline;fill:#fff}.hst8{clip-path:url(#hSVGID_4_)}.hst8,.hst9{fill:#fff}</style><g class="hst0" id="hg80"><path class="hst1" d="M453.5 652.6h-101c-6.4 0-8.3-5.2-8.3-11.7V435h-38.3c-6.4 0-8.3-5.2-8.3-11.7v-85.5c0-6.4 1.9-11.7 8.3-11.7h46.2c0-68.1 12-113.5 36.7-138.7 21.1-21.5 46.6-24.5 71-24.5h71.4c6.4 0 15 5.2 15 11.7v93.3c0 6.4-8.5 11.7-15 11.7h-62.7v46.6h62.7c6.4 0 15 5.2 15 11.7v85.5c0 6.4-8.5 11.7-15 11.7h-62.7V641c-.1 6.4-8.6 11.6-15 11.6zm-86-23.3h77.7v-206c0-6.4 1.9-11.7 8.3-11.7h69.3v-62.2h-69.3c-6.4 0-8.3-5.2-8.3-11.7v-69.9c0-6.4 1.9-11.7 8.3-11.7h69.3v-69.9h-63.1c-18 0-38.6 1.4-54.4 17.5-21.2 21.6-31.2 66.6-29.9 133.8.1 3.1-1.1 6.2-3.3 8.4-2.2 2.2-5.2 3.5-8.3 3.5h-42.9v62.2h31.6c6.4 0 15 5.2 15 11.7v206zm0 0" id="hpath78"/></g><circle class="hst2" cx="439.3" cy="409.3" r="416" id="hcircle82"/><g class="hst0" id="hg86"><path class="hst3" d="M567.1 247h-41c-13.4 0-24.3 10.9-24.3 24.3v40.9c0 13.4 10.9 24.3 24.3 24.3h41c13.3 0 24.2-10.9 24.2-24.3v-40.9c0-13.4-10.9-24.3-24.2-24.3zm3 65.2c0 1.7-1.4 3-3 3h-41c-1.7 0-3-1.4-3-3v-40.9c0-1.7 1.4-3 3-3h41c1.6 0 3 1.4 3 3v40.9zm-26.8-121.7H288.4c-52.7 0-95.6 42.9-95.6 95.6v244.3c0 52.7 42.9 95.6 95.6 95.6h254.9c52.7 0 95.6-42.9 95.6-95.6V286.1c0-52.7-42.9-95.6-95.6-95.6zm74.4 339.9c0 41-33.3 74.3-74.4 74.3H288.4c-41 0-74.3-33.3-74.3-74.3V371.1h107c-20.3 22.6-32.7 52.3-32.7 84.9 0 70.3 57.2 127.5 127.5 127.5S543.3 526.3 543.3 456c0-32.7-12.4-62.4-32.7-84.9h107.1v159.3zM415.9 349.8c58.5 0 106.2 47.7 106.2 106.2s-47.7 106.2-106.2 106.2S309.7 514.6 309.7 456s47.7-106.2 106.2-106.2zm201.8 0H486.2c-20.2-13.4-44.3-21.3-70.3-21.3s-50.2 7.9-70.3 21.3H214.1v-63.7c0-41 33.3-74.3 74.3-74.3h254.9c41 0 74.4 33.3 74.4 74.3v63.7zM415.9 530.4c41 0 74.3-33.3 74.3-74.4s-33.3-74.4-74.3-74.4-74.4 33.3-74.4 74.4 33.4 74.4 74.4 74.4zm0-127.5c29.2 0 53.1 23.8 53.1 53.1s-23.9 53.1-53.1 53.1c-29.3 0-53.1-23.8-53.1-53.1s23.8-53.1 53.1-53.1zm0 0" id="hpath84"/></g><g class="hst0" id="hg90"><path class="hst3" d="M544.5 254.5H291.8c-46.4 0-84.2 37.8-84.2 84.2v140.4c0 46.4 37.8 84.2 84.2 84.2h252.8c46.4 0 84.2-37.8 84.2-84.2V338.8c0-46.5-37.8-84.3-84.3-84.3zM610 479.2c0 36.2-29.4 65.6-65.5 65.6H291.8c-36.1 0-65.5-29.4-65.5-65.6V338.8c0-36.1 29.4-65.5 65.5-65.5h252.8c36.1 0 65.5 29.4 65.5 65.5v140.4zm-252.7 9L494.5 409l-137.2-79.2v158.4zm18.7-126l81 46.8-81 46.8v-93.6zm0 0" id="hpath88"/></g><path id="hpath3144" class="hst4" d="M251.5 641.2l.8-463.6c0-2.9 1.1-5.7 3.2-7.8 2.1-2.1 4.9-3.3 7.9-3.3h200.8c69.6 0 133.4 37 133.3 113.6 0 46.6-12.8 72.5-37.3 93.8l-11.2 8.7 8 3c3.2 1.3 6.2 2.6 8.5 3.8 14 7.2 22.3 14.7 31.1 24 25.9 27.6 30.4 53.4 30.4 93.2 0 98.5-90.9 145.5-173.1 145.5H262.6c-6.1.1-11.1-4.8-11.1-10.9zM605 506.7c0-37.4-4.1-56.5-24.4-78.1-7.6-8.2-14-13.8-25.1-19.5-6.1-3.2-28.1-10.3-35-14.5l-.9-.6c-6.5-4.5-6.2-14.3.5-18.4 38.1-23.6 55.3-42.7 55.3-95.5.1-60.3-48.3-91.5-111.2-91.5H274.4l-.8 441.6H454c76.8-.1 151-43.1 151-123.5zm-232.5 60.1c-6.1 0-11.1-4.9-11-11V440.4c0-6.1 4.9-11 11-11 26.2 0 61.1-3.2 87.8 2.7 29.5 6.6 51.8 25.1 51.1 66.2-.7 39.6-22.9 57.8-51.6 64.7-26.4 6.4-60.5 3.8-87.3 3.8zm82.2-25.3c20.6-5 34.2-15.6 34.7-43.6.5-29-12.9-39.5-33.8-44.2-11.8-2.6-25.1-3.2-39.1-3.1l-32.8.6v93.6l-11-.1c29.6 0 58.9 2.4 82-3.2zm-82.2-171c-6.1 0-11-4.9-11-11v-97.1c0-6.1 4.9-11.1 11-11.1 21 0 48.6-2.3 69.7 2.6 23.8 5.6 41.7 21 41.7 53.9 0 33.9-14.9 51.4-38.7 58.5-20.6 6.2-48.4 4.2-72.7 4.2zm66.4-25.4c13.5-4 22.9-12.3 22.9-37.3 0-21.3-9.5-28.8-24.7-32.4-13.3-3.1-29.3-2.7-46.8-2.3l-6.9.1.1 26v49.3l-11-.1c27.4 0 49.8 1.7 66.4-3.3z"/><g class="hst0" id="hg103"><g class="hst5" id="hg101"><defs id="hdefs94"><path id="hSVGID_1_" d="M19.7 3.5h831.2v831.2H19.7z"/></defs><clipPath id="hSVGID_2_"><use xlink:href="#hSVGID_1_" id="huse96" overflow="visible"/></clipPath><path class="hst6" d="M211.2 833.5c-42.3 0-82.1-16.5-112-46.4l-32-32c-29.9-29.9-46.4-69.7-46.4-112s16.5-82.1 46.4-112l208-208.1c59.9-59.8 164.2-59.8 224 0l32 32c8.8 8.8 8.8 23.2 0 32s-23.2 8.8-32 0l-32-32c-42.7-42.7-117.2-42.8-160 0l-208 208.1c-21.4 21.4-33.1 49.8-33.1 80 0 30.2 11.8 58.7 33.1 80l32 32c42.7 42.8 117.3 42.8 160 0l144.1-144c8.8-8.8 23.2-8.8 32 0s8.8 23.2 0 32l-144.1 144c-29.9 29.9-69.7 46.4-112 46.4zm272-272c-42.3 0-82.1-16.5-112-46.5-8.8-8.8-8.8-23.2 0-32s23.2-8.8 32 0c21.4 21.4 49.7 33.2 79.9 33.2 30.2 0 58.6-11.8 80-33.2l208.1-208c21.4-21.4 33.1-49.8 33.1-80 0-30.2-11.8-58.6-33.1-80l-32-32c-44.2-44.1-116-44.1-160 0l-144 144c-8.8 8.8-23.2 8.8-32 0s-8.8-23.2 0-32l144-144c61.8-61.7 162.2-61.7 224 0l32 32c29.9 29.9 46.4 69.7 46.4 112s-16.5 82.1-46.4 112L595.1 515c-29.8 30-69.6 46.5-111.9 46.5zm0 0" clip-path="url(#hSVGID_2_)" id="hpath99"/></g></g><g class="hst0" id="hg109"><path class="hst7" d="M436.7 449.9c-78.6 0-142.6-64-142.6-142.8 0-78.6 64-142.6 142.6-142.6 78.7 0 142.6 64 142.6 142.6.1 78.7-64 142.8-142.6 142.8zm0-260.3c-64.7 0-117.5 52.7-117.5 117.5 0 64.9 52.7 117.6 117.5 117.6S554.2 372 554.2 307.1c0-64.7-52.7-117.5-117.5-117.5zm0 0" id="hpath105"/><path class="hst7" d="M436.7 834c-3.7 0-7.2-1.6-9.5-4.4-12.2-14.5-297.6-357.2-297.6-522.5C129.6 137.9 267.4 0 436.7 0c169.4 0 307.1 137.9 307.1 307.1 0 165.5-285.2 508-297.4 522.5-2.4 2.8-6 4.4-9.7 4.4zm0-808.8c-155.5 0-282 126.4-282 282 0 139.9 231.4 432.5 282 494.6 50.6-62.2 282-354.7 282-494.6 0-155.6-126.5-282-282-282zm0 0" id="hpath107"/></g><g class="hst0" id="hg125"><path class="hst7" d="M587.7 327.6c-6.3 3.9-8.3 12.2-4.4 18.5 2.5 4.1 6.9 6.4 11.4 6.4 2.4 0 4.8-.6 7-2 32.5-20.1 52-54.9 52-93.1 0-60.3-49-109.3-109.3-109.3-38.4 0-74.4 20.5-94 53.6-3.8 6.4-1.7 14.6 4.7 18.4 6.4 3.8 14.6 1.7 18.4-4.7 14.8-24.9 42-40.4 71-40.4 45.5 0 82.4 37 82.4 82.4 0 28.7-14.7 55-39.2 70.2zm0 0" id="hpath111"/><g class="hst5" id="hg123"><defs id="hdefs114"><path id="hSVGID_3_" d="M0 3.8h796.3v834.4H0z"/></defs><clipPath id="hSVGID_4_"><use xlink:href="#hSVGID_3_" id="huse116" overflow="visible"/></clipPath><path class="hst8" d="M709.2 6H379.7c-47.8 0-86.6 38.9-86.6 86.6v271.3c0 7.4 6 13.4 13.4 13.4s13.4-6 13.4-13.4V107.2h449V737H517.6c-7.4 0-13.4 6-13.4 13.4s6 13.4 13.4 13.4h250.1c-5.7 27.1-29.8 47.5-58.5 47.5H379.7c-7.4 0-13.4 6-13.4 13.4s6 13.4 13.4 13.4h329.4c47.8 0 86.6-38.9 86.6-86.6V92.6C795.8 44.9 756.9 6 709.2 6zM379.7 32.8h329.4c28.8 0 52.8 20.4 58.5 47.5H321.2c5.7-27.1 29.8-47.5 58.5-47.5zm0 0" clip-path="url(#hSVGID_4_)" id="hpath119"/><path class="hst8" d="M582.1 628.9c10-10 15.5-23.2 15.5-37.3 0-14.1-5.5-27.4-15.5-37.3-11.1-11.1-25.9-16.2-40.3-15.4.8-14.5-4.3-29.3-15.4-40.4-10-10-23.2-15.5-37.3-15.5-1 0-2 0-3 .1.8-14.5-4.3-29.3-15.4-40.3-6.7-6.7-14.7-11.2-23.2-13.5l132.2-132.2c20.6-20.6 20.6-54.1 0-74.7s-54.1-20.6-74.7 0L238.6 488.8c-38 38-55.9 89.3-49.8 141.6L3.9 815.2c-5.2 5.2-5.2 13.7 0 19 2.6 2.6 6.1 3.9 9.5 3.9 3.4 0 6.9-1.3 9.5-3.9l189.5-189.5c3-3 4.4-7.3 3.8-11.6-7.2-46.1 7.8-91.8 41.4-125.3L524 241.5c10.1-10.1 26.6-10.1 36.7 0 10.1 10.1 10.1 26.6 0 36.7L396 442.8c-2.6 2.6-3.9 6.1-3.9 9.5s1.3 6.9 3.9 9.5c5.2 5.2 13.7 5.2 19 0 10.1-10.1 26.6-10.1 36.7 0 10.1 10.1 10.1 26.6 0 36.7-2.6 2.6-3.9 6.1-3.9 9.5 0 3.4 1.3 6.9 3.9 9.5 5.2 5.2 13.7 5.2 19 0 10.1-10.1 26.6-10.1 36.7 0 10.1 10.1 10.1 26.6 0 36.7-2.6 2.6-3.9 6.1-3.9 9.5 0 3.4 1.3 6.9 3.9 9.5 5.2 5.2 13.7 5.2 19 0 10.1-10.1 26.6-10.1 36.7 0 10.1 10.1 10.1 26.6 0 36.7L461.4 711.6c-33.5 33.5-79.2 48.6-125.3 41.4-4.2-.7-8.5.7-11.6 3.8L266 815.3c-5.2 5.2-5.2 13.7 0 19 5.2 5.2 13.7 5.2 19 0l53.8-53.8c52.3 6.1 103.6-11.8 141.6-49.8l101.7-101.8zm0 0" clip-path="url(#hSVGID_4_)" id="hpath121"/></g></g><g id="hg133"><path class="hst9" d="M781.7 293V190.2H652.2L423.4 8.9 194.7 190.2H65.1V293L4 341.4v493.1h838.8V341.4L781.7 293zM295.1 584.6L29.7 795.1V374.2l265.4 210.4zm128.3-69l369.7 293.1H53.7l369.7-293.1zm128.4 69l265.3-210.4V795L551.8 584.6zm257.5-237l-27.6 21.9v-43.7l27.6 21.8zM423.4 41.7l187.4 148.6H236L423.4 41.7zM756 215.9v174L531.1 568.2l-107.7-85.4-107.7 85.4L90.8 389.9v-174H756zM65.1 369.5l-27.6-21.9 27.6-21.9v43.8zm0 0" id="hpath127"/><path class="hst9" id="hrect129" d="M173.8 311.4h499.3v25.7H173.8z"/><path class="hst9" id="hrect131" d="M173.8 384.8h499.3v25.7H173.8z"/></g></symbol><symbol viewBox="0 0 158.8278 158.80386" id="link" xmlns="http://www.w3.org/2000/svg"><defs id="idefs2"><path id="iSVGID_1_" d="M0 0h831.2v831.2H0z"/></defs><g id="ilayer1" transform="translate(-1.473 -.64)"><g id="ig64" transform="translate(1.262 .405) scale(.19161)"><g id="ig37"><g id="ig35"><defs id="idefs28"><path id="irect56" d="M0 0h831.2v831.2H0z"/></defs><clipPath id="iSVGID_2_"><use id="iuse30" xlink:href="#iSVGID_1_" width="100%" height="100%" overflow="visible"/></clipPath><path id="ipath33" clip-path="url(#iSVGID_2_)" d="M191.5 830c-42.3 0-82.1-16.5-112-46.4l-32-32C17.6 721.7 1.1 682 1.1 639.6c0-42.3 16.5-82.1 46.4-112l208-208.1c59.9-59.8 164.2-59.8 224 0l32 32c8.8 8.8 8.8 23.2 0 32s-23.2 8.8-32 0l-32-32c-42.7-42.7-117.2-42.8-160 0l-208 208.1c-21.4 21.4-33.1 49.8-33.1 80 0 30.2 11.8 58.7 33.1 80l32 32c42.7 42.8 117.3 42.8 160 0l144.1-144c8.8-8.8 23.2-8.8 32 0s8.8 23.2 0 32l-144.1 144c-29.9 29.9-69.6 46.4-112 46.4zm272.1-272c-42.3 0-82.1-16.5-112-46.5-8.8-8.8-8.8-23.2 0-32s23.2-8.8 32 0c21.4 21.4 49.7 33.2 79.9 33.2 30.2 0 58.6-11.8 80-33.2l208.1-208c21.4-21.4 33.1-49.8 33.1-80 0-30.2-11.8-58.6-33.1-80l-32-32c-44.2-44.1-116-44.1-160 0l-144 144c-8.8 8.8-23.2 8.8-32 0s-8.8-23.2 0-32l144-144c61.8-61.7 162.2-61.7 224 0l32 32c29.9 29.9 46.4 69.7 46.4 112s-16.5 82.1-46.4 112l-208.1 208c-29.8 30-69.6 46.5-111.9 46.5zm0 0" class="ist5"/></g></g></g></g><style id="istyle10">.st0{display:none}.st1{display:inline;fill:#535353}.st2{display:none;fill:none;stroke:#525252;stroke-width:10;stroke-miterlimit:10}.st3{display:inline;fill-rule:evenodd;clip-rule:evenodd;fill:#535353}.st4{display:none;fill:#525252}.ist5{clip-path:url(#iSVGID_2_);fill:#fff}</style></symbol><symbol viewBox="0 0 109.93882 64.937218" id="logo-5" xmlns="http://www.w3.org/2000/svg"><defs id="jdefs2"><path id="jSVGID_1_" d="M0 0h793.5v607.8H0z"/></defs><g id="jlayer1" transform="translate(-4.75 -3.728)"><g transform="matrix(.35278 0 0 -.35278 4.751 68.665)" id="jg3791"><g transform="translate(.3 184.074)" id="jg3793"><path id="jpath3795" d="M0 0v-5.99h133.863l.063.064 5.563 5.563.363.363zm128.21-11.129H0v-5.991h122.732l.062.062 5.567 5.566.362.363zM117.079-22.26H0v-5.99h111.603l.062.062 5.565 5.566.362.362zM28.038-33.39H0v-5.99h28.25v5.99zm0-11.13H0v-5.991h28.25v5.991zm0-11.131H0v-5.989h28.25v5.989zm0-11.13H0v-5.99h28.25v5.99zm111.301-11.117H59.688v-.001H0v-5.989h139.551v5.99zm0-11.131H0v-5.989h139.551v5.989zm0-11.129H59.688v-.001H0v-5.99h139.551v5.991zm0-11.145h-28.038v-5.989h28.25v5.989zm0-11.129h-28.038v-5.991h28.25v5.991zm0-11.132h-28.038v-5.989h28.25v5.989zm0-11.128h-28.038v-5.991h28.25v5.991zm0-11.131H55.651v-.001H-.301l.363-.363 5.565-5.564.062-.063h128.173l.062.063 5.565 5.564.363.364zm-11.129-11.131H10.83l.362-.362 5.565-5.566.062-.061h105.914l.061.061 5.566 5.566.362.362zm-11.132-11.13H21.96l.363-.363 5.564-5.565.063-.062h83.777v.125l5.502 5.502.362.363z"/></g><g transform="translate(310.858 105.964)" id="jg3797"><path id="jpath3799" d="M0 0h-40.472v-72.36H.779v10.145h-31.106v11.98H.779v10.144h-31.106v29.945H.779V0zm-49.427 0h-9.365v-46.351l-.128-.129-.002.001-11.036-11.035-.315-.315-.315.315-11.036 11.035-.129.131V0h-10.145v-50.559l.231-.232 13.904-13.896.229-.228h.002l6.708-6.709.551-.551.552.551 6.708 6.709h.001l.229.228L-48.88-50.79l.232.231V0zm-51.681 0h-9.365v-72.36h10.144V0zm-18.458 0h-40.474v-72.36h10.146v22.125h31.106v10.144h-31.106v29.945h31.108V0z"/></g></g></g><style id="jstyle3699">.st0{display:none}.st1{display:inline;fill:#535353}.st2{fill:#e8e8e8}.st3{display:inline}.st4,.st5{fill:#202020}.st4{clip-path:url(#SVGID_2_)}.st5{display:inline}</style></symbol><symbol viewBox="0 0 24 24" id="mail" xmlns="http://www.w3.org/2000/svg"><path d="M11.99 0L0 8.723V24h24V8.723L11.99 0zm.001 2.472l9.793 7.113-6.735 4.588L12 11.703l-3.049 2.471-6.737-4.589 9.777-7.113zM2 11.858l5.329 3.63L2 19.806v-7.948zM2.474 22L12 14.277 21.526 22H2.474zM22 19.806l-5.329-4.317L22 11.858v7.948z"/></symbol><symbol id="menu-burger" viewBox="0 0 374.2 258.7" xmlns="http://www.w3.org/2000/svg"><style>.lst0{clip-path:url(#lSVGID_2_);fill:#fff}</style><defs><path id="lSVGID_1_" d="M0 0h374.2v258.7H0z"/></defs><clipPath id="lSVGID_2_"><use xlink:href="#lSVGID_1_" overflow="visible"/></clipPath><path class="lst0" d="M11.7 23.6h350.9c6.5 0 11.7-5.2 11.7-11.7 0-6.5-5.2-11.7-11.7-11.7H11.7C5.2.2 0 5.5 0 11.9c0 6.5 5.2 11.7 11.7 11.7zm350.9 93.6H11.7c-6.5 0-11.7 5.2-11.7 11.7 0 6.5 5.2 11.7 11.7 11.7h350.9c6.5 0 11.7-5.2 11.7-11.7 0-6.5-5.3-11.7-11.7-11.7zm0 116.9H11.7c-6.5 0-11.7 5.2-11.7 11.7 0 6.5 5.2 11.7 11.7 11.7h350.9c6.5 0 11.7-5.2 11.7-11.7 0-6.4-5.3-11.7-11.7-11.7zm0 0"/></symbol><symbol viewBox="0 0 135.7085 177.0464" id="mobile" xmlns="http://www.w3.org/2000/svg"><path d="M5.024 173.762l-4.058-3.285-.483-73.048L0 24.38l4.202-4.885 4.201-4.885h103.729l4.202 4.885 4.201 4.885-.483 73.048-.483 73.048-4.057 3.285c-3.792 3.069-7.415 3.284-55.244 3.284-47.83 0-51.452-.215-55.244-3.284zm106.858-7.118c1.038-1.94 1.645-5.227 1.35-7.305l-.538-3.779H7.84l-.537 3.78c-.296 2.077.311 5.365 1.35 7.304 1.836 3.432 3.23 3.527 51.614 3.527s49.778-.095 51.614-3.527zm-54.792.286c-3.479-2.204-1.632-7.854 2.773-8.482 4.62-.66 6.887 3.757 3.824 7.447-2.43 2.93-3.374 3.078-6.597 1.035zm56.463-79.56c0-53.843-.31-60.8-2.844-63.6-2.625-2.9-6.505-3.143-50.143-3.143-41.598 0-47.676.343-50.44 2.845-2.933 2.654-3.144 6.924-3.144 63.599v60.754h106.571zm15.47-.31c0-47.402-.632-74.716-1.779-76.86-1.7-3.177-4.187-3.326-56.294-3.381-54.44-.057-54.509-.062-50.456-3.438C24.33.186 27.363.001 75.928.001c58.304 0 56.98-.315 59.1 14.057.604 4.086.853 37.375.554 73.976-.494 60.652-.809 66.814-3.55 69.554-2.865 2.863-3.009-.496-3.009-70.528z" stroke-width="1.719"/></symbol><symbol viewBox="0 0 136.63083 221.50917" id="mouse" xmlns="http://www.w3.org/2000/svg"><defs id="ndefs2"><path id="nSVGID_1_" d="M19.7 3.5h831.2v831.2H19.7z"/><path id="nSVGID_3_" d="M0 3.8h796.3v834.4H0z"/></defs><g id="nlayer1" transform="translate(-24.289 -17.29)"><g id="ng118" transform="translate(-19.95 17.158) scale(.26458)"><g id="ng71"><path id="npath69" d="M631.1 80.8C585.6 27.5 516.5.5 425.4.5c-91 0-160.2 27-205.7 80.3-45.7 53.6-52.5 116.4-52.5 149.1v378.4c0 32.7 6.8 95.5 52.5 149.1 45.4 53.3 114.6 80.3 205.7 80.3 91 0 160.2-27 205.7-80.3 45.7-53.6 52.5-116.4 52.5-149.1V229.9c0-32.7-6.8-95.5-52.5-149.1zM425.4 292.1c-18.9 0-34.2-15.4-34.2-34.2v-73.3c0-18.9 15.4-34.2 34.2-34.2 18.9 0 34.2 15.3 34.2 34.2v73.3c0 18.9-15.3 34.2-34.2 34.2zm231.2 316.2c0 33.8-11.1 202.4-231.2 202.4-220 0-231.2-168.6-231.2-202.4V229.9c0-33.1 10.7-195.4 217.7-202.2v97.2c-27.3 6.2-47.7 30.6-47.7 59.7v73.3c0 29.1 20.4 53.5 47.7 59.7v111c0 7.5 6 13.5 13.5 13.5s13.5-6 13.5-13.5v-111c27.3-6.2 47.7-30.6 47.7-59.7v-73.3c0-29.1-20.4-53.5-47.7-59.7V27.7c207 6.8 217.7 169.1 217.7 202.2zm0 0" class="nst9"/></g></g></g><style id="nstyle10">.st0{display:none}.st1{display:inline;fill:#535353}.st2{display:none;fill:none;stroke:#525252;stroke-width:10;stroke-miterlimit:10}.st3{display:inline;fill-rule:evenodd;clip-rule:evenodd;fill:#535353}.st4{display:none;fill:#525252}.st5{display:inline}.st6{clip-path:url(#SVGID_2_);fill:#fff}.st7{display:inline;fill:#fff}.st8{clip-path:url(#SVGID_4_);fill:#fff}.nst9{fill:#7e7e7e}</style></symbol><symbol viewBox="0 0 24 24" id="phone" xmlns="http://www.w3.org/2000/svg"><path d="M19 2a2 2 0 0 0-2-2H7a2 2 0 0 0-2 2v20a2 2 0 0 0 2 2h10a2 2 0 0 0 2-2V2zm-8.5 0h3a.5.5 0 0 1 0 1h-3a.5.5 0 0 1 0-1zM12 22a1 1 0 1 1 0-2 1 1 0 0 1 0 2zm5-3H7V4.976h10V19z"/></symbol><symbol id="sait_katalog" viewBox="0 0 502.8 414.4" xmlns="http://www.w3.org/2000/svg"><style id="pstyle97">.pst0{clip-path:url(#pSVGID_2_)}.pst0,.pst1{fill:#fff}</style><g id="pg133"><g id="pg107"><defs id="pdefs100"><path id="pSVGID_1_" d="M0 0h502.8v414.4H0z"/></defs><clipPath id="pSVGID_2_"><use xlink:href="#pSVGID_1_" id="puse102" overflow="visible"/></clipPath><path class="pst0" d="M492.7 0H10.3C4.6 0 0 4.6 0 10.3v393.3c0 5.7 4.6 10.3 10.3 10.3h482.4c5.7 0 10.3-4.6 10.3-10.3V10.3C502.9 4.6 498.3 0 492.7 0zm-10.3 20.5v61.8H20.5V20.5h461.9zM20.5 393.3V102.9h461.9v290.4H20.5zm0 0" clip-path="url(#pSVGID_2_)" id="ppath105"/></g><path class="pst1" d="M160.2 154.5H78.1c-5.7 0-10.3 4.6-10.3 10.3v83.1c0 5.7 4.6 10.3 10.3 10.3h82.1c5.7 0 10.3-4.6 10.3-10.3v-83.1c0-5.7-4.6-10.3-10.3-10.3zm-10.3 83.1H88.4V175h61.5v62.6zm0 0" id="ppath109"/><path class="pst1" d="M209.7 258.2h82.1c5.7 0 10.3-4.6 10.3-10.3v-83.1c0-5.7-4.6-10.3-10.3-10.3h-82.1c-5.7 0-10.3 4.6-10.3 10.3v83.1c0 5.7 4.6 10.3 10.3 10.3zm10.2-83.2h61.5v62.6h-61.5V175zm0 0" id="ppath111"/><path class="pst1" d="M341.2 258.2h82.1c5.7 0 10.3-4.6 10.3-10.3v-83.1c0-5.7-4.6-10.3-10.3-10.3h-82.1c-5.7 0-10.3 4.6-10.3 10.3v83.1c.1 5.7 4.7 10.3 10.3 10.3zm10.3-83.2H413v62.6h-61.5V175zm0 0" id="ppath113"/><path class="pst1" d="M160.2 284.2H78.1c-5.7 0-10.3 4.6-10.3 10.3 0 5.7 4.6 10.3 10.3 10.3h82.1c5.7 0 10.3-4.6 10.3-10.3 0-5.7-4.6-10.3-10.3-10.3zm0 0" id="ppath115"/><path class="pst1" d="M160.2 322.2H78.1c-5.7 0-10.3 4.6-10.3 10.3 0 5.7 4.6 10.3 10.3 10.3h82.1c5.7 0 10.3-4.6 10.3-10.3 0-5.7-4.6-10.3-10.3-10.3zm0 0" id="ppath117"/><path class="pst1" d="M292.5 284.2h-82.1c-5.7 0-10.3 4.6-10.3 10.3 0 5.7 4.6 10.3 10.3 10.3h82.1c5.7 0 10.3-4.6 10.3-10.3 0-5.7-4.6-10.3-10.3-10.3zm0 0" id="ppath119"/><path class="pst1" d="M292.5 322.2h-82.1c-5.7 0-10.3 4.6-10.3 10.3 0 5.7 4.6 10.3 10.3 10.3h82.1c5.7 0 10.3-4.6 10.3-10.3 0-5.7-4.6-10.3-10.3-10.3zm0 0" id="ppath121"/><path class="pst1" d="M424.8 284.2h-82.1c-5.7 0-10.3 4.6-10.3 10.3 0 5.7 4.6 10.3 10.3 10.3h82.1c5.7 0 10.3-4.6 10.3-10.3 0-5.7-4.6-10.3-10.3-10.3zm0 0" id="ppath123"/><path class="pst1" d="M424.8 322.2h-82.1c-5.7 0-10.3 4.6-10.3 10.3 0 5.7 4.6 10.3 10.3 10.3h82.1c5.7 0 10.3-4.6 10.3-10.3 0-5.7-4.6-10.3-10.3-10.3zm0 0" id="ppath125"/><path class="pst1" d="M78.1 61.5h5.1c5.7 0 10.3-4.6 10.3-10.3s-4.6-10.3-10.3-10.3h-5.1c-5.7 0-10.3 4.6-10.3 10.3s4.7 10.3 10.3 10.3zm0 0" id="ppath127"/><path class="pst1" d="M120.7 61.5h5.1c5.7 0 10.3-4.6 10.3-10.3s-4.6-10.3-10.3-10.3h-5.1c-5.7 0-10.3 4.6-10.3 10.3s4.6 10.3 10.3 10.3zm0 0" id="ppath129"/><path class="pst1" d="M163.2 61.5h5.1c5.7 0 10.3-4.6 10.3-10.3s-4.6-10.3-10.3-10.3h-5.1c-5.7 0-10.3 4.6-10.3 10.3s4.7 10.3 10.3 10.3zm0 0" id="ppath131"/></g></symbol><symbol viewBox="0 0 368 368" id="smartphone" xmlns="http://www.w3.org/2000/svg"><path d="M248 0H120C98 0 80 18 80 40v288c0 22 18 40 40 40h128c22 0 40-18 40-40V40c0-22-18-40-40-40zm24 328c0 13.2-10.8 24-24 24H120c-13.2 0-24-10.8-24-24v-40h176v40zm0-56H96V64h176v208zm0-224H96v-8c0-13.2 10.8-24 24-24h128c13.2 0 24 10.8 24 24v8z"/><path d="M184 344c13.2 0 24-10.8 24-24s-10.8-24-24-24-24 10.8-24 24 10.8 24 24 24zm0-32c4.4 0 8 3.6 8 8s-3.6 8-8 8-8-3.6-8-8 3.6-8 8-8zm4-288h-8c-4.4 0-8 3.6-8 8s3.6 8 8 8h8c4.4 0 8-3.6 8-8s-3.6-8-8-8z"/></symbol><symbol viewBox="0 0 24 24" id="vk" xmlns="http://www.w3.org/2000/svg"><path d="M12 2c5.514 0 10 4.486 10 10s-4.486 10-10 10S2 17.514 2 12 6.486 2 12 2zm0-2C5.373 0 0 5.373 0 12s5.373 12 12 12 12-5.373 12-12S18.627 0 12 0zm.581 15.997c.304 0 .429-.204.425-.458-.016-.958.356-1.474 1.03-.802.744.744.896 1.26 1.801 1.26h1.601c.403 0 .562-.13.562-.334 0-.432-.711-1.194-1.312-1.752-.844-.783-.882-.802-.156-1.744.9-1.169 2.079-2.667 1.037-2.667h-1.991c-.387 0-.414.217-.551.542-.498 1.173-1.443 2.693-1.803 2.461-.377-.243-.204-1.203-.175-2.63.008-.377.006-.636-.571-.77A4.005 4.005 0 0 0 11.575 9c-1.137 0-1.922.477-1.477.56.785.146.711 1.846.527 2.58-.319 1.278-1.518-1.012-2.018-2.152-.12-.275-.155-.488-.586-.488H6.394c-.247 0-.394.08-.394.258 0 .301 1.479 3.36 2.892 4.885 1.379 1.487 2.742 1.354 3.689 1.354z"/></symbol><symbol viewBox="0 0 24 24" id="yt" xmlns="http://www.w3.org/2000/svg"><path d="M16.23 7.102c-2.002-.136-6.462-.135-8.461 0C5.604 7.25 5.35 8.558 5.333 12c.017 3.436.27 4.75 2.437 4.898 1.999.135 6.459.136 8.461 0 2.165-.148 2.42-1.457 2.437-4.898-.018-3.436-.271-4.75-2.438-4.898zM10 14.222V9.778l4.778 2.218L10 14.222zM12 2c5.514 0 10 4.486 10 10s-4.486 10-10 10S2 17.514 2 12 6.486 2 12 2zm0-2C5.373 0 0 5.373 0 12s5.373 12 12 12 12-5.373 12-12S18.627 0 12 0z"/></symbol></svg>